<svg width="100" height="100" viewBox="0 0 100 100" fill="none" xmlns="http://www.w3.org/2000/svg">
<g clip-path="url(#clip0_5_27)">
<g clip-path="url(#clip1_5_27)">
<path d="M0 16.6481V33.2961H2.47486H4.94973V19.1229V4.94973H19.1229H33.2961V2.47486V0H16.648H0L0 16.6481Z" fill="#657788"/>
<path d="M100 83.3522V66.7041H97.5251H95.0503V80.8773V95.0505H80.8771H66.7039V97.5253V100H83.352H100V83.3522Z" fill="#657788"/>
<path d="M83.5802 50.1812C83.5802 68.7 68.5408 83.7124 49.9889 83.7124C31.437 83.7124 16.3977 68.7 16.3977 50.1812C16.3977 31.6624 31.437 16.6499 49.9889 16.6499C68.5408 16.6499 83.5802 31.6624 83.5802 50.1812Z" fill="#80D2C8"/>
<path fill-rule="evenodd" clip-rule="evenodd" d="M47.1083 16.7715C30.1819 18.2066 16.8337 32.1706 16.4082 49.3359C16.4073 49.5377 16.4067 49.7646 16.4067 50.0156C16.4077 50.5007 16.4089 50.8661 16.4112 51.1384C16.418 51.3803 16.4273 51.6216 16.4392 51.8622C16.4426 51.8683 16.4463 51.8678 16.4504 51.8622C16.4722 51.8341 16.5034 51.8091 16.519 51.8091C16.5346 51.8091 16.6407 51.8715 16.7561 51.9464C16.8715 52.0212 17.0212 52.093 17.0836 52.1054C17.252 52.1335 17.9944 52.3519 18.325 52.4642C19.6881 52.9383 20.4398 53.3874 20.68 53.8771C20.8203 54.1672 20.8671 54.3887 20.8983 54.9408C20.9513 55.8266 20.9732 55.967 21.1042 56.1791C21.2445 56.4036 21.3911 56.4629 21.9432 56.519C22.4392 56.569 22.7199 56.6656 23.559 57.0836C24.5384 57.5702 24.7879 57.6482 25.4679 57.6856C26.5221 57.7449 27.1241 57.8385 27.9445 58.0661C29.1578 58.4061 29.9782 58.8709 30.287 59.3887C30.3213 59.4448 30.3306 59.5571 30.3306 59.7942C30.3275 60.0749 30.3119 60.1622 30.2277 60.4118C30.0343 60.9794 29.7505 61.5035 29.0081 62.6669C28.35 63.6931 28.2564 63.9645 27.9944 65.5334C27.8197 66.5877 27.67 67.1522 27.3924 67.8104C27.0119 68.7087 26.4598 69.4011 26.1229 69.4011C25.6269 69.4011 24.6475 70.0842 24.214 70.733C23.9988 71.0543 23.9457 71.1791 23.9894 71.2633C24.0112 71.3038 24.0393 71.335 24.0549 71.335C24.0674 71.335 24.0799 71.3506 24.0799 71.3662C24.0799 71.3849 24.111 71.4348 24.1516 71.4754C24.189 71.5159 24.2576 71.5939 24.3044 71.6532C24.3512 71.7093 24.4198 71.7904 24.4541 71.831C24.4885 71.8746 24.5103 71.9277 24.5009 71.9495C24.4947 71.9744 24.5009 71.9838 24.5165 71.9744C24.5571 71.9495 24.8628 72.2739 24.844 72.3238C24.8378 72.3487 24.8503 72.355 24.8815 72.3425C24.922 72.3269 24.9283 72.3363 24.9127 72.3768C24.9002 72.408 24.9033 72.4236 24.922 72.4111C24.9407 72.3986 24.975 72.4142 25.0031 72.4392C25.0281 72.4673 25.0437 72.4891 25.0343 72.4891C25.025 72.4891 25.1061 72.5827 25.2183 72.6981C25.3306 72.8166 25.4148 72.9289 25.4055 72.9507C25.3961 72.9757 25.4055 72.9819 25.4242 72.9695C25.4429 72.957 25.5926 73.0911 25.7673 73.272C25.9389 73.4498 26.0917 73.6089 26.1073 73.6276C26.151 73.6681 26.3536 73.8708 26.3818 73.8989C26.3883 73.9054 26.4338 73.9493 26.5011 74.0141C26.5629 74.0735 26.6429 74.1506 26.728 74.2327C26.9089 74.4074 27.043 74.5571 27.0306 74.5758C27.0181 74.5945 27.0243 74.6039 27.0493 74.5945C27.0711 74.5852 27.1834 74.6694 27.3019 74.7817C27.4173 74.894 27.5109 74.9751 27.5109 74.9657C27.5109 74.9564 27.5328 74.9719 27.5608 74.9969C27.5858 75.025 27.6014 75.0593 27.5889 75.078C27.5764 75.0967 27.592 75.0998 27.6232 75.0874C27.6638 75.0718 27.6731 75.078 27.6575 75.1185C27.645 75.1497 27.6513 75.1622 27.6762 75.156C27.7261 75.1373 28.0505 75.4429 28.0256 75.4835C28.0162 75.4991 28.0256 75.5053 28.0505 75.4991C28.0724 75.4897 28.1254 75.5116 28.1691 75.5459C28.2096 75.5802 28.2907 75.6488 28.3468 75.6956C28.4061 75.7424 28.4841 75.811 28.5246 75.8484C28.5652 75.889 28.6089 75.9202 28.6182 75.9202C28.6276 75.9202 28.6681 75.9482 28.7056 75.9857C28.743 76.0231 28.8241 76.0886 28.8833 76.1323C28.9426 76.1791 29.0424 76.2633 29.1017 76.3163C29.1609 76.3724 29.2202 76.4192 29.2358 76.4192C29.2483 76.4192 29.3013 76.4629 29.3575 76.5128C29.4105 76.5658 29.4666 76.6064 29.4791 76.6064C29.4916 76.6064 29.5384 76.6407 29.582 76.6844C29.6257 76.728 29.6756 76.7623 29.6943 76.7623C29.7099 76.7623 29.7255 76.7717 29.7255 76.7842C29.7255 76.7998 29.7785 76.8434 29.8409 76.8871C29.9033 76.9308 29.9875 76.9963 30.025 77.0337C30.0655 77.0743 30.1123 77.1054 30.131 77.1054C30.1466 77.1054 30.1622 77.121 30.1622 77.1398C30.1622 77.1554 30.1747 77.1647 30.1903 77.1554C30.2027 77.146 30.2402 77.1647 30.2714 77.199C30.3026 77.2333 30.3462 77.2614 30.3712 77.2614C30.3961 77.2614 30.4055 77.2739 30.3961 77.2926C30.3868 77.3113 30.3993 77.3238 30.4242 77.3238C30.4523 77.3238 30.4741 77.3363 30.4741 77.355C30.4741 77.3706 30.4959 77.3862 30.5209 77.3862C30.5459 77.3862 30.5989 77.4205 30.6425 77.4642C30.6862 77.5078 30.7361 77.5421 30.7548 77.5421C30.7704 77.5421 30.786 77.5546 30.786 77.5733C30.786 77.5889 30.8079 77.6045 30.8328 77.6045C30.8578 77.6045 30.8796 77.6139 30.8796 77.6263C30.8796 77.6419 30.9513 77.6918 31.0356 77.7449C31.1229 77.7948 31.1915 77.8478 31.1915 77.8603C31.1915 77.8728 31.2134 77.8852 31.2383 77.8852C31.2633 77.8852 31.2851 77.8977 31.2851 77.9102C31.2851 77.9258 31.3412 77.9632 31.4099 77.9975C31.4785 78.0287 31.5346 78.0661 31.5346 78.0786C31.5346 78.0942 31.5502 78.1036 31.5658 78.1036C31.5845 78.1036 31.6251 78.1285 31.6594 78.1566C31.6906 78.1878 31.7717 78.2408 31.8372 78.2751C31.9027 78.3094 31.9775 78.3593 32.0025 78.3843C32.0274 78.4093 32.1085 78.4592 32.1803 78.4935C32.2551 78.5278 32.3144 78.5652 32.3144 78.5777C32.3144 78.5933 32.3362 78.6026 32.3612 78.6026C32.3862 78.6026 32.408 78.6151 32.408 78.6338C32.408 78.6494 32.4298 78.665 32.4579 78.665C32.4828 78.665 32.4953 78.6775 32.486 78.6962C32.4766 78.7118 32.4891 78.7274 32.5172 78.7274C32.5421 78.7274 32.6201 78.7617 32.6887 78.8054C32.7573 78.8491 32.826 78.8834 32.8447 78.8834C32.8603 78.8834 32.8759 78.8958 32.8759 78.9146C32.8759 78.9302 32.8977 78.9457 32.9226 78.9457C32.9476 78.9457 32.9694 78.9551 32.9694 78.9676C32.9694 78.9832 33.0318 79.0206 33.1098 79.0549C33.1878 79.0892 33.2502 79.1267 33.2502 79.1391C33.2502 79.1547 33.272 79.1641 33.2969 79.1641C33.3219 79.1641 33.3437 79.1766 33.3437 79.1953C33.3437 79.2109 33.3656 79.2265 33.3905 79.2265C33.4155 79.2265 33.4373 79.2389 33.4373 79.2577C33.4373 79.2733 33.4591 79.2889 33.4872 79.2889C33.5434 79.2889 33.7274 79.3855 33.743 79.4199C33.7492 79.4355 33.7742 79.4448 33.7991 79.4448C33.8241 79.4448 33.8428 79.4542 33.8428 79.4698C33.8428 79.4947 34.0705 79.6008 34.1235 79.6008C34.1422 79.6008 34.1547 79.6132 34.1547 79.632C34.1547 79.6476 34.1765 79.6632 34.2015 79.6632C34.2264 79.6632 34.2483 79.6756 34.2483 79.6943C34.2483 79.7099 34.2764 79.7255 34.3107 79.7255C34.345 79.7255 34.3731 79.738 34.3731 79.7567C34.3731 79.7723 34.3949 79.7879 34.4198 79.7879C34.4448 79.7879 34.4666 79.8004 34.4666 79.8191C34.4666 79.8347 34.4885 79.8503 34.5134 79.8503C34.5664 79.8503 34.8815 80.0094 34.8971 80.0437C34.9033 80.0593 34.9345 80.0686 34.9688 80.0686C35 80.0686 35.0281 80.0842 35.0281 80.103C35.0281 80.1185 35.0405 80.1279 35.053 80.1185C35.0686 80.1092 35.1248 80.131 35.1778 80.1653C35.2339 80.1965 35.2994 80.2246 35.3244 80.2246C35.3493 80.2246 35.3712 80.2371 35.3712 80.2558C35.3712 80.2714 35.4024 80.287 35.4398 80.287C35.4772 80.287 35.4959 80.2963 35.4866 80.3088C35.4648 80.3275 35.6238 80.3993 35.7704 80.4336C35.8079 80.4429 35.8391 80.4617 35.8391 80.4773C35.8391 80.4928 35.8671 80.5053 35.9014 80.5053C35.9357 80.5053 35.9638 80.5178 35.9638 80.5365C35.9638 80.5521 35.9919 80.5677 36.0262 80.5677C36.0605 80.5677 36.0886 80.5802 36.0886 80.5989C36.0886 80.6145 36.1104 80.6301 36.1354 80.6301C36.1603 80.6301 36.2539 80.6644 36.3444 80.7081C36.4317 80.7517 36.5253 80.786 36.5471 80.786C36.5721 80.786 36.5814 80.7985 36.5721 80.8172C36.5596 80.836 36.5876 80.8484 36.6313 80.8484C36.675 80.8484 36.7124 80.8609 36.7124 80.8796C36.7124 80.8952 36.7342 80.9108 36.7623 80.9108C36.8091 80.9108 36.9682 80.9732 37.093 81.0387C37.1241 81.0543 37.1709 81.0668 37.1959 81.0668C37.2208 81.0668 37.2427 81.0792 37.2427 81.098C37.2427 81.1136 37.2801 81.1292 37.3238 81.1292C37.3674 81.1292 37.3955 81.1416 37.383 81.1603C37.3737 81.1791 37.3955 81.1915 37.4361 81.1915C37.4766 81.1915 37.5483 81.2134 37.5983 81.2383C37.645 81.2633 37.7137 81.2851 37.7449 81.2851C37.7792 81.2851 37.8041 81.2976 37.8041 81.3163C37.8041 81.3319 37.8415 81.3475 37.8852 81.3475C37.9289 81.3475 37.957 81.36 37.9445 81.3787C37.932 81.3974 37.9601 81.4099 38.0037 81.4099C38.0474 81.4099 38.0848 81.4224 38.0848 81.4379C38.0848 81.4535 38.141 81.4723 38.2096 81.4847C38.2813 81.4941 38.3656 81.519 38.3968 81.5346C38.4139 81.544 38.4365 81.5549 38.4591 81.5658C38.4818 81.5768 38.5044 81.5877 38.5215 81.597C38.5558 81.6126 38.612 81.6282 38.6463 81.6282C38.6837 81.6282 38.7024 81.6407 38.6931 81.6594C38.6806 81.6781 38.7149 81.6906 38.7679 81.6906C38.821 81.6906 38.8646 81.7031 38.8646 81.7187C38.8646 81.7343 38.927 81.7561 39.005 81.7655C39.0799 81.7779 39.1516 81.7998 39.1609 81.8185C39.1734 81.8341 39.214 81.8466 39.2576 81.8466C39.2982 81.8466 39.3325 81.859 39.3325 81.8778C39.3325 81.8933 39.3762 81.9089 39.4261 81.9089C39.4791 81.9089 39.5197 81.9214 39.5197 81.9401C39.5197 81.9557 39.5633 81.9713 39.6132 81.9713C39.6663 81.9713 39.7068 81.9838 39.7068 81.9994C39.7068 82.015 39.7785 82.0368 39.8628 82.0493C39.9501 82.0618 40.0187 82.0836 40.0187 82.0992C40.0187 82.1148 40.0624 82.1273 40.1123 82.1273C40.1653 82.1273 40.2059 82.1398 40.2059 82.1585C40.2059 82.1741 40.2558 82.1897 40.3182 82.1897C40.3837 82.1897 40.4211 82.2021 40.4086 82.2209C40.3961 82.2396 40.4304 82.2521 40.4928 82.2521C40.549 82.2552 40.6519 82.2739 40.7205 82.2988C40.7891 82.3238 40.8765 82.3456 40.917 82.3456C40.9545 82.3456 40.9857 82.3581 40.9857 82.3768C40.9857 82.3924 41.0356 82.408 41.0948 82.408C41.1541 82.408 41.204 82.4205 41.204 82.4392C41.204 82.4548 41.2539 82.4704 41.3163 82.4704C41.3755 82.4704 41.4192 82.4829 41.4099 82.4985C41.4005 82.5141 41.4816 82.5359 41.5939 82.5484C41.7062 82.5577 41.8029 82.5827 41.8122 82.5983C41.8247 82.6139 41.8777 82.6263 41.937 82.6263C41.9963 82.6263 42.0524 82.6388 42.0618 82.6575C42.0711 82.6731 42.1304 82.6887 42.1896 82.6887C42.2489 82.6887 42.2957 82.7012 42.2957 82.7199C42.2957 82.7355 42.3518 82.7511 42.4205 82.7511C42.4891 82.7511 42.5452 82.7636 42.5452 82.7792C42.5452 82.7948 42.6575 82.8166 42.7948 82.8291C42.932 82.8416 43.0443 82.8634 43.0443 82.879C43.0443 82.8946 43.1067 82.9071 43.1847 82.9071C43.2626 82.9071 43.325 82.9195 43.325 82.9383C43.325 82.9539 43.3874 82.9695 43.4654 82.9695C43.5434 82.9695 43.6057 82.9819 43.6057 83.0006C43.6057 83.0162 43.6775 83.0318 43.7648 83.0318C43.849 83.0318 43.9145 83.0443 43.9052 83.0599C43.8958 83.0755 44.0331 83.0973 44.214 83.1098C44.3949 83.1223 44.5508 83.1441 44.5602 83.1597C44.5696 83.1753 44.6444 83.1878 44.7318 83.1878C44.816 83.1878 44.8846 83.2003 44.8846 83.219C44.8846 83.2377 44.9719 83.2502 45.0873 83.2502C45.2027 83.2502 45.2901 83.2627 45.2901 83.2814C45.2901 83.3001 45.3774 83.3126 45.4928 83.3126C45.6051 83.3126 45.6956 83.325 45.6956 83.3406C45.6956 83.3562 45.9139 83.3781 46.179 83.3905C46.4442 83.403 46.6719 83.4248 46.6812 83.4404C46.6906 83.456 46.8372 83.4685 47.0087 83.4685C47.1928 83.4685 47.3175 83.481 47.3175 83.4997C47.3175 83.5184 47.486 83.5309 47.7636 83.5309C48.0599 83.5309 48.1909 83.5403 48.1597 83.5621C48.1285 83.5808 48.7711 83.5933 50 83.5933C51.229 83.5933 51.8715 83.5808 51.8403 83.5621C51.8091 83.5403 51.9401 83.5309 52.2396 83.5309C52.514 83.5309 52.6825 83.5184 52.6825 83.4997C52.6825 83.481 52.8072 83.4685 52.9913 83.4685C53.1628 83.4685 53.3094 83.456 53.3188 83.4404C53.3281 83.4248 53.5558 83.403 53.821 83.3905C54.0861 83.3781 54.3044 83.3562 54.3044 83.3406C54.3044 83.325 54.3949 83.3126 54.5072 83.3126C54.6226 83.3126 54.7099 83.3001 54.7099 83.2814C54.7099 83.2627 54.7973 83.2502 54.9127 83.2502C55.0281 83.2502 55.1154 83.2377 55.1154 83.219C55.1154 83.2003 55.184 83.1878 55.2682 83.1878C55.3556 83.1878 55.4304 83.1753 55.4398 83.1597C55.4492 83.1441 55.6051 83.1223 55.786 83.1098C55.9669 83.0973 56.1042 83.0755 56.0948 83.0599C56.0855 83.0443 56.151 83.0318 56.2352 83.0318C56.3225 83.0318 56.3943 83.0162 56.3943 83.0006C56.3943 82.9819 56.4566 82.9695 56.5346 82.9695C56.6126 82.9695 56.675 82.9539 56.675 82.9383C56.675 82.9195 56.7374 82.9071 56.8153 82.9071C56.8933 82.9071 56.9557 82.8946 56.9557 82.879C56.9557 82.8634 57.068 82.8416 57.2052 82.8291C57.3425 82.8166 57.4548 82.7948 57.4548 82.7792C57.4548 82.7636 57.5203 82.7511 57.5983 82.7511C57.6825 82.7511 57.7324 82.7386 57.7199 82.7199C57.7074 82.7012 57.7449 82.6887 57.8104 82.6887C57.8696 82.6887 57.9289 82.6731 57.9382 82.6575C57.9476 82.6388 58.0037 82.6263 58.063 82.6263C58.1223 82.6263 58.1753 82.6139 58.1878 82.5983C58.1971 82.5827 58.2938 82.5577 58.4061 82.5484C58.5184 82.5359 58.5995 82.5141 58.5901 82.4985C58.5808 82.4829 58.6245 82.4704 58.6837 82.4704C58.7461 82.4704 58.796 82.4548 58.796 82.4392C58.796 82.4205 58.8459 82.408 58.9052 82.408C58.9644 82.408 59.0143 82.3924 59.0143 82.3768C59.0143 82.3581 59.0455 82.3456 59.0861 82.3456C59.1235 82.3456 59.2109 82.3238 59.2795 82.2988C59.3481 82.2739 59.451 82.2552 59.5072 82.2521C59.5696 82.2521 59.6039 82.2396 59.5914 82.2209C59.5789 82.2021 59.6163 82.1897 59.6818 82.1897C59.7442 82.1897 59.7941 82.1741 59.7941 82.1585C59.7941 82.1398 59.8378 82.1273 59.8877 82.1273C59.9407 82.1273 59.9813 82.1148 59.9813 82.0992C59.9813 82.0774 60.0998 82.0462 60.2682 82.0212C60.2776 82.0181 60.2994 82.0088 60.3119 81.9963C60.3244 81.9807 60.3681 81.9713 60.4086 81.9713C60.4492 81.9713 60.4804 81.9557 60.4804 81.9401C60.4804 81.9214 60.524 81.9089 60.5739 81.9089C60.6269 81.9089 60.6675 81.8933 60.6675 81.8778C60.6675 81.859 60.7018 81.8466 60.7424 81.8466C60.786 81.8466 60.8266 81.8341 60.8391 81.8185C60.8484 81.7998 60.9202 81.7779 60.995 81.7655C61.073 81.7561 61.1354 81.7343 61.1354 81.7187C61.1354 81.7031 61.179 81.6906 61.2321 81.6906C61.2851 81.6906 61.3194 81.6781 61.3069 81.6594C61.2944 81.6407 61.3288 81.6282 61.3818 81.6282C61.4348 81.6282 61.4785 81.6126 61.4785 81.597C61.4785 81.5783 61.5065 81.5658 61.5377 81.5658C61.5721 81.5658 61.6064 81.5534 61.6188 81.5378C61.6282 81.519 61.6999 81.4972 61.7748 81.4847C61.8528 81.4754 61.9152 81.4535 61.9152 81.4379C61.9152 81.4224 61.9526 81.4099 61.9963 81.4099C62.0399 81.4099 62.068 81.3974 62.0555 81.3787C62.043 81.36 62.0711 81.3475 62.1148 81.3475C62.1585 81.3475 62.1959 81.3319 62.1959 81.3163C62.1959 81.2976 62.2208 81.2851 62.2551 81.2851C62.2863 81.2851 62.355 81.2633 62.4017 81.2383C62.4517 81.2134 62.5234 81.1915 62.5639 81.1915C62.6045 81.1915 62.6263 81.1791 62.617 81.1603C62.6045 81.1416 62.6326 81.1292 62.6762 81.1292C62.7199 81.1292 62.7573 81.1136 62.7573 81.098C62.7573 81.0792 62.7792 81.0668 62.8041 81.0668C62.8291 81.0668 62.8759 81.0543 62.907 81.0387C63.0318 80.9732 63.1909 80.9108 63.2377 80.9108C63.2657 80.9108 63.2876 80.8952 63.2876 80.8796C63.2876 80.8609 63.3219 80.8484 63.3624 80.8484C63.403 80.8484 63.4435 80.836 63.4498 80.8235C63.4654 80.786 63.8116 80.6301 63.8802 80.6301C63.9145 80.6301 63.9426 80.6145 63.9426 80.5989C63.9426 80.5802 63.9707 80.5677 64.0081 80.5677C64.0424 80.5677 64.0611 80.5552 64.0518 80.5365C64.0424 80.5178 64.0611 80.5053 64.0954 80.5053C64.1329 80.5053 64.1609 80.4928 64.1609 80.4773C64.1609 80.4617 64.1921 80.4429 64.2327 80.4336C64.3762 80.3993 64.5352 80.3275 64.5134 80.3088C64.5041 80.2963 64.5228 80.287 64.5602 80.287C64.5976 80.287 64.6288 80.2714 64.6288 80.2558C64.6288 80.2371 64.6507 80.2246 64.6756 80.2246C64.7006 80.2246 64.7661 80.1965 64.8222 80.1653C64.8752 80.131 64.9314 80.1092 64.947 80.1185C64.9594 80.1279 64.9719 80.1185 64.9719 80.103C64.9719 80.0842 65 80.0686 65.0312 80.0686C65.0655 80.0686 65.0967 80.0593 65.1029 80.0437C65.1185 80.0094 65.4336 79.8503 65.4866 79.8503C65.5115 79.8503 65.5334 79.8347 65.5334 79.8191C65.5334 79.8004 65.5552 79.7879 65.5802 79.7879C65.6051 79.7879 65.6269 79.7723 65.6269 79.7567C65.6269 79.738 65.655 79.7255 65.6893 79.7255C65.7236 79.7255 65.7517 79.7099 65.7517 79.6943C65.7517 79.6756 65.7736 79.6632 65.7985 79.6632C65.8235 79.6632 65.8453 79.6507 65.8453 79.6351C65.8453 79.6195 65.8858 79.5977 65.9389 79.5852C65.9888 79.5727 66.0387 79.5509 66.048 79.5353C66.0605 79.5197 66.0948 79.5072 66.1291 79.5072C66.1634 79.5072 66.1822 79.4947 66.1728 79.476C66.1634 79.4604 66.1759 79.4448 66.2009 79.4448C66.2289 79.4448 66.2508 79.4323 66.2508 79.4199C66.2508 79.4074 66.3225 79.37 66.4067 79.3356C66.4941 79.3013 66.5627 79.2639 66.5627 79.2514C66.5627 79.2389 66.5908 79.2265 66.6282 79.2265C66.6625 79.2265 66.6812 79.2109 66.6719 79.1953C66.6625 79.1766 66.675 79.1641 66.6999 79.1641C66.728 79.1641 66.7498 79.1547 66.7498 79.1391C66.7498 79.1267 66.8122 79.0892 66.8902 79.0549C66.9682 79.0206 67.0306 78.9832 67.0306 78.9676C67.0306 78.9551 67.0524 78.9457 67.0774 78.9457C67.1023 78.9457 67.1241 78.9302 67.1241 78.9146C67.1241 78.8958 67.1522 78.8834 67.1865 78.8834C67.2208 78.8834 67.2489 78.874 67.2489 78.8584C67.2489 78.8303 67.4267 78.7274 67.4797 78.7274C67.4984 78.7274 67.5359 78.6993 67.5608 78.665C67.5858 78.6307 67.6232 78.6026 67.645 78.6026C67.6669 78.6026 67.6856 78.5902 67.6856 78.5746C67.6856 78.5496 67.801 78.4997 67.8509 78.5059C67.8634 78.5091 67.8727 78.4935 67.8727 78.4779C67.8727 78.4592 67.8883 78.4467 67.9071 78.4467C67.9289 78.4467 67.9663 78.4217 67.9944 78.3905C68.0225 78.3625 68.1004 78.3094 68.1691 78.2751C68.2377 78.2408 68.3157 78.1878 68.3437 78.1566C68.3718 78.1285 68.4092 78.1036 68.4311 78.1036C68.4498 78.1036 68.4654 78.0942 68.4654 78.0786C68.4654 78.0661 68.5215 78.0287 68.5901 77.9975C68.6588 77.9632 68.7149 77.9258 68.7149 77.9102C68.7149 77.8977 68.7305 77.8852 68.7461 77.8852C68.7648 77.8852 68.8085 77.8603 68.8428 77.826C68.8771 77.7948 68.9582 77.7418 69.0206 77.7106C69.083 77.6763 69.1578 77.6263 69.1859 77.5952C69.214 77.5671 69.2483 77.5421 69.2639 77.5421C69.2795 77.5421 69.3138 77.5141 69.3387 77.4829C69.3606 77.4486 69.3918 77.4267 69.4074 77.4361C69.4198 77.4454 69.4323 77.4361 69.4323 77.4205C69.4323 77.4018 69.4541 77.3862 69.4791 77.3862C69.5041 77.3862 69.5259 77.3706 69.5259 77.355C69.5259 77.3363 69.5477 77.3238 69.5758 77.3238C69.6007 77.3238 69.6132 77.3082 69.6039 77.2926C69.5945 77.2739 69.6039 77.2614 69.6288 77.2614C69.6507 77.2614 69.7006 77.2333 69.7349 77.2021C69.7723 77.1678 69.8097 77.1491 69.8191 77.1585C69.8284 77.171 69.8378 77.1616 69.8378 77.1429C69.8378 77.121 69.8534 77.1054 69.869 77.1054C69.8877 77.1054 69.9439 77.0649 70 77.0119C70.053 76.962 70.1092 76.9183 70.1216 76.9183C70.1341 76.9183 70.1809 76.884 70.2246 76.8403C70.2682 76.7967 70.3119 76.7623 70.3213 76.7623C70.3306 76.7623 70.3743 76.728 70.418 76.6844C70.4616 76.6407 70.5084 76.6064 70.5209 76.6064C70.5334 76.6064 70.5895 76.5627 70.6425 76.5128C70.6987 76.4598 70.7517 76.4192 70.7642 76.4192C70.7798 76.4192 70.8515 76.3631 70.9233 76.2945C70.9981 76.2258 71.0699 76.1697 71.0792 76.1697C71.0917 76.1697 71.1603 76.1136 71.2352 76.0449C71.3069 75.9763 71.3724 75.9202 71.3818 75.9202C71.3911 75.9202 71.4348 75.889 71.4754 75.8484C71.5159 75.811 71.5939 75.7424 71.6532 75.6956C71.7093 75.6488 71.7904 75.5802 71.8309 75.5459C71.8746 75.5116 71.9276 75.4897 71.9495 75.4991C71.9744 75.5053 71.9838 75.4991 71.9744 75.4835C71.9526 75.4461 72.2645 75.1529 72.3206 75.1591C72.3425 75.1622 72.3518 75.1435 72.3394 75.1154C72.3269 75.0811 72.3362 75.0718 72.3768 75.0874C72.408 75.0998 72.4236 75.0967 72.4111 75.078C72.3893 75.0406 72.4735 74.947 72.5016 74.9751C72.5109 74.9875 72.5203 74.9782 72.5203 74.9595C72.5203 74.9376 72.5359 74.922 72.5546 74.922C72.5733 74.922 72.645 74.8597 72.7168 74.7817C72.7854 74.7037 72.8603 74.6444 72.8821 74.6538C72.9102 74.6632 72.9164 74.6538 72.9039 74.6195C72.8883 74.5821 72.8977 74.5727 72.9351 74.5883C72.9726 74.6008 72.9788 74.5945 72.9663 74.5571C72.9507 74.5166 72.9601 74.5103 73.0006 74.5259C73.0349 74.5384 73.0474 74.5353 73.0318 74.5134C73.0162 74.4885 73.3718 74.1173 73.6182 73.9052C73.64 73.8865 73.6806 73.8397 73.7056 73.8054C73.7367 73.7555 73.7555 73.7492 73.7742 73.7773C73.7898 73.8023 73.7991 73.7898 73.7991 73.743C73.7991 73.7025 73.8116 73.6775 73.8241 73.6869C73.8397 73.6962 73.8709 73.6744 73.8958 73.637C73.98 73.5153 74.1017 73.3968 74.1235 73.4155C74.1329 73.4248 74.1422 73.4186 74.1422 73.3968C74.1422 73.3375 74.476 73.01 74.5134 73.0318C74.5352 73.0474 74.5384 73.035 74.5259 73.0006C74.5103 72.9601 74.5165 72.9507 74.5571 72.9663C74.5945 72.9788 74.6007 72.9726 74.5883 72.9351C74.5727 72.8977 74.582 72.8884 74.6195 72.904C74.6538 72.9164 74.6631 72.9102 74.6538 72.8821C74.6444 72.8572 74.6725 72.8104 74.7162 72.7761C74.7598 72.7418 74.7973 72.6981 74.7973 72.6763C74.7973 72.6575 74.8128 72.6513 74.8284 72.6607C74.8472 72.67 74.8596 72.6638 74.8596 72.6419C74.8596 72.6232 74.8908 72.5796 74.9283 72.5484C74.9626 72.5141 74.9844 72.4891 74.9719 72.4891C74.9595 72.4891 74.9719 72.4673 74.9969 72.4392C75.025 72.4142 75.0593 72.3986 75.078 72.4111C75.0967 72.4236 75.0998 72.408 75.0873 72.3768C75.0717 72.3331 75.078 72.3269 75.1216 72.3425C75.156 72.355 75.1684 72.3519 75.156 72.33C75.1435 72.3144 75.1716 72.2645 75.2152 72.224C75.2589 72.1834 75.2963 72.1335 75.2963 72.1148C75.2963 72.0961 75.3119 72.0899 75.3275 72.0992C75.3462 72.1086 75.3587 72.1023 75.3587 72.0836C75.3587 72.0306 75.446 71.9526 75.4835 71.9744C75.4991 71.9838 75.5053 71.9744 75.4959 71.9495C75.4866 71.9245 75.5147 71.8684 75.5583 71.8247C75.602 71.7779 75.6394 71.7343 75.6394 71.7249C75.6394 71.7156 75.6706 71.675 75.7112 71.6345C75.7486 71.5939 75.7985 71.5315 75.8235 71.4972C75.8484 71.4598 75.8796 71.4379 75.8952 71.4473C75.9077 71.4567 75.9202 71.4317 75.9202 71.3912C75.9202 71.335 75.9264 71.3288 75.9513 71.3662C75.9763 71.4068 75.9825 71.4036 75.9825 71.3537C75.9825 71.3225 76.0168 71.2633 76.0605 71.2227C76.1042 71.1822 76.1385 71.1354 76.1385 71.1167C76.1385 71.098 76.1541 71.0917 76.1697 71.1011C76.1884 71.1104 76.2009 71.0917 76.2009 71.0543C76.2009 71.0169 76.2165 70.9982 76.2321 71.0075C76.2508 71.0169 76.2633 71.0044 76.2633 70.9794C76.2633 70.9545 76.2976 70.9077 76.3412 70.8734C76.3849 70.8391 76.4192 70.7892 76.4192 70.758C76.4192 70.7299 76.4348 70.7174 76.4504 70.7268C76.4691 70.7361 76.4816 70.7237 76.4816 70.6925C76.4816 70.6519 76.491 70.6488 76.5253 70.6769C76.5627 70.7081 76.5658 70.7018 76.5533 70.6519C76.544 70.6083 76.5533 70.5802 76.5876 70.5677C76.6157 70.5584 76.6376 70.5272 76.6376 70.5022C76.6376 70.4461 76.7155 70.365 76.7436 70.3899C76.753 70.4024 76.7623 70.3774 76.7623 70.34C76.7623 70.3026 76.7748 70.2807 76.7935 70.2901C76.8122 70.2995 76.8247 70.2932 76.8247 70.2745C76.8247 70.2215 76.937 70.0842 76.9619 70.1092C76.9713 70.1185 76.9807 70.103 76.9807 70.0686C76.9807 70.0343 77.0087 69.9875 77.043 69.9626C77.0774 69.9376 77.1054 69.9002 77.1054 69.8784C77.1054 69.8565 77.121 69.8378 77.1397 69.8378C77.1553 69.8378 77.1647 69.8254 77.1553 69.8129C77.146 69.7973 77.1678 69.7661 77.2021 69.7442C77.2333 69.7193 77.2614 69.6725 77.2614 69.6413C77.2614 69.6101 77.277 69.5945 77.2926 69.6039C77.3113 69.6132 77.3238 69.6008 77.3238 69.5696C77.3238 69.529 77.3331 69.5259 77.3674 69.554C77.4017 69.5821 77.4049 69.5758 77.3955 69.5134C77.3862 69.4635 77.4049 69.4167 77.461 69.3606C77.5047 69.3169 77.5421 69.2639 77.5421 69.2452C77.5421 69.2296 77.5577 69.214 77.5733 69.214C77.592 69.214 77.6045 69.1922 77.6045 69.1641C77.6045 69.1391 77.617 69.1235 77.6326 69.1329C77.6482 69.1423 77.67 69.1173 77.6793 69.0736C77.6918 69.03 77.7137 68.9957 77.7293 68.9957C77.748 68.9957 77.7604 68.9738 77.7604 68.9457C77.7604 68.9208 77.776 68.9083 77.7916 68.9177C77.8104 68.927 77.8228 68.9083 77.8228 68.874C77.8228 68.8366 77.8384 68.8085 77.854 68.8085C77.8727 68.8085 77.8852 68.7867 77.8852 68.7586C77.8852 68.7336 77.8977 68.7181 77.9133 68.7274C77.9289 68.7368 77.9507 68.7118 77.9601 68.6681C77.9726 68.6245 77.9944 68.5902 78.01 68.5902C78.0287 68.5902 78.0412 68.5621 78.0412 68.5247C78.0412 68.4904 78.0568 68.4716 78.0724 68.481C78.0911 68.4904 78.1036 68.4685 78.1036 68.428C78.1036 68.3718 78.1098 68.3656 78.1348 68.403C78.1597 68.4404 78.1659 68.4373 78.1659 68.3843C78.1659 68.3469 78.1878 68.3001 78.2127 68.2783C78.2377 68.2564 78.2595 68.219 78.2595 68.194C78.2595 68.166 78.2782 68.1535 78.3001 68.1628C78.3312 68.1753 78.3406 68.1566 78.3313 68.0973C78.3188 68.0318 78.325 68.0225 78.35 68.0599C78.378 68.0973 78.3843 68.0942 78.3843 68.035C78.3843 67.9975 78.3968 67.9663 78.4124 67.9663C78.4279 67.9663 78.4498 67.932 78.4591 67.8884C78.4716 67.8447 78.4935 67.8104 78.509 67.8104C78.5278 67.8104 78.5402 67.7823 78.5402 67.748C78.5402 67.7137 78.5558 67.6856 78.5714 67.6856C78.5901 67.6856 78.6026 67.6638 78.6026 67.6357C78.6026 67.6108 78.6182 67.5983 78.6338 67.6076C78.6525 67.617 78.665 67.5983 78.665 67.5608C78.665 67.5234 78.6806 67.5047 78.6962 67.5141C78.7149 67.5234 78.7274 67.5047 78.7274 67.4673C78.7274 67.433 78.7492 67.3955 78.7742 67.3862C78.7991 67.3737 78.821 67.3394 78.821 67.3082C78.821 67.277 78.8366 67.2489 78.8522 67.2489C78.8709 67.2489 78.8833 67.2209 78.8833 67.1834C78.8833 67.1491 78.8989 67.1304 78.9145 67.1398C78.9333 67.1491 78.9457 67.1304 78.9457 67.093C78.9457 67.0555 78.9613 67.0368 78.9769 67.0462C78.9956 67.0555 79.0081 67.0368 79.0081 67.0025C79.0081 66.9682 79.0299 66.9214 79.0549 66.8933C79.0799 66.8684 79.1017 66.8216 79.1017 66.7904C79.1017 66.7436 79.1079 66.7405 79.1329 66.7811C79.1578 66.8185 79.1641 66.8091 79.1641 66.7405C79.1641 66.6906 79.1765 66.6594 79.1953 66.6719C79.214 66.6812 79.2265 66.6625 79.2265 66.6282C79.2265 66.5908 79.242 66.5627 79.2576 66.5627C79.2764 66.5627 79.2888 66.5346 79.2888 66.5035C79.2888 66.4691 79.3107 66.4224 79.3356 66.3943C79.3606 66.3693 79.3824 66.3257 79.3824 66.2976C79.3824 66.2695 79.398 66.257 79.4136 66.2664C79.4323 66.2758 79.4448 66.257 79.4448 66.2196C79.4448 66.1822 79.4604 66.1635 79.476 66.1728C79.4947 66.1822 79.5072 66.1635 79.5072 66.1292C79.5072 66.0917 79.5196 66.0637 79.5352 66.0637C79.5508 66.0637 79.5727 66.0137 79.582 65.9545C79.5945 65.8952 79.6163 65.8453 79.6319 65.8453C79.6507 65.8453 79.6631 65.8235 79.6631 65.7985C79.6631 65.7736 79.6787 65.7517 79.6943 65.7517C79.713 65.7517 79.7255 65.7237 79.7255 65.6862C79.7255 65.6519 79.7411 65.6332 79.7567 65.6426C79.7754 65.6519 79.7879 65.6394 79.7879 65.6114C79.7879 65.5833 79.8097 65.5396 79.8347 65.5147C79.8596 65.4866 79.8815 65.4398 79.8815 65.4055C79.8815 65.3743 79.8971 65.3462 79.9127 65.3462C79.9314 65.3462 79.9439 65.3182 79.9439 65.2839C79.9439 65.2496 79.9595 65.2215 79.975 65.2215C79.9938 65.2215 80.0062 65.1934 80.0062 65.156C80.0062 65.1217 80.0218 65.103 80.0374 65.1123C80.0561 65.1248 80.0686 65.0967 80.0686 65.053C80.0686 65.0094 80.0842 64.9719 80.1029 64.9719C80.1185 64.9719 80.1248 64.9595 80.1154 64.9408C80.1061 64.922 80.1123 64.9096 80.1279 64.9096C80.1466 64.9096 80.1622 64.8815 80.1622 64.8472C80.1622 64.8129 80.1778 64.7848 80.1934 64.7848C80.2121 64.7848 80.2246 64.7474 80.2246 64.6975C80.2246 64.632 80.2308 64.6226 80.2558 64.66C80.2776 64.6943 80.287 64.6787 80.287 64.5977C80.287 64.5166 80.2963 64.501 80.3182 64.5353C80.3431 64.5727 80.3493 64.5633 80.3493 64.4978C80.3493 64.4511 80.3712 64.3949 80.3961 64.3668C80.4242 64.3419 80.446 64.3107 80.4429 64.3013C80.4367 64.2046 80.4492 64.161 80.4741 64.1766C80.4928 64.189 80.5053 64.161 80.5053 64.1142C80.5053 64.0674 80.5178 64.0393 80.5365 64.0518C80.5552 64.0643 80.5677 64.0362 80.5677 63.9894C80.5677 63.9426 80.5802 63.9146 80.5989 63.927C80.6176 63.9364 80.6301 63.9114 80.6301 63.8678C80.6301 63.8272 80.6519 63.7711 80.6768 63.743C80.7018 63.7181 80.7236 63.6681 80.7236 63.6338C80.7236 63.5964 80.7392 63.5683 80.7548 63.5683C80.7736 63.5683 80.786 63.5309 80.786 63.4872C80.786 63.4436 80.7985 63.4155 80.8172 63.428C80.8359 63.4404 80.8484 63.4124 80.8484 63.3656C80.8484 63.3219 80.8609 63.2907 80.8765 63.3001C80.8921 63.3094 80.9108 63.2627 80.9233 63.194C80.9326 63.1254 80.9576 63.0693 80.9732 63.0693C80.9919 63.0693 81.0044 63.0318 81.0044 62.9882C81.0044 62.9445 81.0168 62.9164 81.0356 62.9289C81.0543 62.9414 81.0667 62.9071 81.0667 62.8509C81.0667 62.7948 81.0792 62.7605 81.0979 62.7729C81.1167 62.7854 81.1291 62.7511 81.1291 62.695C81.1291 62.6419 81.1416 62.6045 81.1572 62.6139C81.1728 62.6232 81.1915 62.5764 81.204 62.5078C81.2133 62.4392 81.2383 62.3831 81.2539 62.3831C81.2726 62.3831 81.2851 62.3394 81.2851 62.2864C81.2851 62.2333 81.2976 62.199 81.3163 62.2115C81.335 62.224 81.3475 62.1897 81.3475 62.1273C81.3475 62.0493 81.3568 62.0368 81.3787 62.0711C81.3888 62.087 81.3962 62.0929 81.4013 62.0869C81.4029 62.0825 81.4046 62.0781 81.4063 62.0737C81.4087 62.0617 81.4099 62.0424 81.4099 62.015C81.4099 61.962 81.4223 61.9152 81.4379 61.9152C81.4566 61.9152 81.4785 61.8528 81.491 61.7748C81.5003 61.6968 81.5221 61.6438 81.5377 61.6532C81.5533 61.6625 81.5658 61.6251 81.5658 61.5752C81.5658 61.5222 81.5814 61.4785 81.597 61.4785C81.6157 61.4785 81.6282 61.4348 81.6282 61.3818C81.6282 61.3288 81.6407 61.2945 81.6594 61.3069C81.6781 61.3194 81.6906 61.2882 81.6906 61.2321C81.6906 61.1822 81.7062 61.1354 81.7249 61.1292C81.7405 61.1229 81.7654 61.0605 81.7748 60.9857C81.7842 60.9139 81.8029 60.864 81.8185 60.8734C81.8341 60.8827 81.8465 60.8391 81.8465 60.7767C81.8465 60.7081 81.859 60.6706 81.8777 60.6831C81.8964 60.6956 81.9089 60.6582 81.9089 60.5927C81.9089 60.5303 81.9245 60.4804 81.9401 60.4804C81.9588 60.4804 81.9713 60.4398 81.9713 60.3899C81.9713 60.34 81.9869 60.2932 82.0056 60.287C82.0243 60.2807 82.0462 60.209 82.0555 60.1279C82.0649 60.0468 82.0867 59.9813 82.0992 59.9813C82.1148 59.9813 82.1273 59.9376 82.1273 59.8846C82.1273 59.8316 82.1397 59.7973 82.1584 59.8098C82.1772 59.8222 82.1897 59.7754 82.1897 59.6943C82.1897 59.6101 82.199 59.5758 82.2177 59.6008C82.2333 59.6288 82.2489 59.5758 82.2614 59.4604C82.2707 59.3606 82.2957 59.2764 82.3144 59.2701C82.33 59.2639 82.3456 59.2015 82.3456 59.136C82.3456 59.0612 82.3581 59.0175 82.3768 59.03C82.3955 59.0424 82.408 58.9957 82.408 58.9146C82.408 58.8179 82.4173 58.7929 82.4392 58.8272C82.4431 58.8334 82.4466 58.8374 82.4498 58.8393C82.4564 58.8143 82.4631 58.7893 82.4697 58.7643C82.4701 58.7507 82.4704 58.7354 82.4704 58.7181C82.4704 58.6214 82.4797 58.5777 82.4984 58.6026C82.5025 58.61 82.5068 58.6109 82.5112 58.6057C82.5193 58.5744 82.5274 58.543 82.5355 58.5116C82.539 58.487 82.5423 58.458 82.5452 58.4248C82.5577 58.3032 82.5795 58.2034 82.5983 58.2034C82.6138 58.2034 82.6263 58.1472 82.6263 58.0786C82.6263 58.01 82.6419 57.9539 82.6575 57.9539C82.6762 57.9539 82.6887 57.8977 82.6887 57.826C82.6887 57.7511 82.7012 57.7074 82.7199 57.7199C82.7226 57.7217 82.7251 57.7222 82.7275 57.7215C82.7353 57.6877 82.743 57.6539 82.7507 57.62C82.751 57.6121 82.7511 57.6038 82.7511 57.5952C82.7511 57.5172 82.7636 57.4579 82.7792 57.4673C82.7812 57.4685 82.7833 57.4676 82.7855 57.4649C82.7968 57.4142 82.8079 57.3634 82.819 57.3126C82.8227 57.2827 82.8261 57.2497 82.8291 57.2146C82.8447 57.04 82.8603 56.962 82.879 56.99C82.8814 56.9937 82.8837 56.996 82.8858 56.9971C82.8927 56.9637 82.8996 56.9302 82.9064 56.8968C82.9068 56.8817 82.9071 56.8649 82.9071 56.8466C82.9071 56.7156 82.9164 56.6719 82.9382 56.7062C82.94 56.709 82.9417 56.7113 82.9433 56.713C82.9521 56.6686 82.9608 56.624 82.9694 56.5795C82.9694 56.5771 82.9694 56.5746 82.9694 56.5721C82.9694 56.4598 82.9819 56.3974 83.0006 56.4099C83.001 56.4101 83.0013 56.4103 83.0017 56.4105C83.0119 56.3564 83.0219 56.3023 83.0318 56.2481C83.0323 56.155 83.0444 56.0867 83.0596 56.0947C83.0799 55.9807 83.0996 55.8665 83.1188 55.7522C83.1229 55.6919 83.1254 55.6304 83.1254 55.5739C83.1254 55.5022 83.1379 55.4617 83.1566 55.4741C83.1592 55.4759 83.1617 55.4761 83.164 55.4749C83.172 55.4248 83.1798 55.3747 83.1875 55.3246C83.1877 55.3155 83.1878 55.3061 83.1878 55.2963C83.1878 55.1671 83.1961 55.1181 83.2153 55.1414C83.2274 55.0599 83.2392 54.9784 83.2507 54.8967C83.2529 54.7937 83.2617 54.7339 83.2744 54.7254C83.3234 54.3642 83.3667 54.0013 83.4041 53.6366C83.4115 53.5314 83.42 53.4469 83.4276 53.399C83.4425 53.2429 83.4563 53.0866 83.469 52.9299C83.4706 52.8047 83.476 52.734 83.4859 52.714C83.5484 51.8779 83.5803 51.0332 83.5803 50.1812C83.5803 44.0422 81.9276 38.2886 79.0421 33.3394C79.0273 33.3553 79.0109 33.3733 78.9925 33.3937C78.8958 33.5028 78.7586 33.6182 78.6744 33.6588C78.5371 33.7243 78.4841 33.7336 78.088 33.7305C77.6232 33.7305 77.5234 33.7149 76.6095 33.481C75.811 33.2751 75.4429 33.2159 74.9844 33.2159C74.6132 33.2159 74.5352 33.2252 74.3325 33.2938C73.9738 33.4155 73.7492 33.6307 73.6089 33.9894C73.5465 34.1516 73.5371 34.2265 73.5371 34.6694C73.534 35.0375 73.5496 35.2433 73.5933 35.4492C73.665 35.8079 73.8397 36.4255 73.9021 36.544C73.9832 36.7031 74.2077 36.8965 74.3918 36.9651C74.6101 37.0493 75.0905 37.0555 75.3899 36.9807C75.8453 36.8653 76.4036 36.5908 76.6563 36.3631C76.8465 36.1884 76.9775 36.1416 77.2146 36.1697C77.8977 36.2539 78.665 36.6781 79.3387 37.3519C79.7099 37.723 79.9002 37.9601 80.1372 38.3469C80.3681 38.7305 80.418 38.8896 80.4055 39.2234C80.3961 39.4698 80.3837 39.529 80.2932 39.7037C80.0499 40.1716 79.685 40.5178 78.6057 41.2976C76.8153 42.592 76.0886 43.2876 75.5115 44.2545C75.2246 44.738 75.078 44.9376 74.8534 45.1529C74.6257 45.3712 74.4822 45.4648 74.2202 45.5739C74.058 45.6394 73.9832 45.6488 73.6588 45.6488C73.1722 45.6488 72.957 45.5833 72.3019 45.2433C72.0649 45.1185 71.4598 44.6975 71.1354 44.4323C70.9825 44.3076 70.1404 43.5964 69.9938 43.4716C69.9501 43.4342 69.8472 43.3469 69.7598 43.2783C69.1235 42.7761 68.4342 42.0524 67.8696 41.2976C67.3082 40.5428 67.224 40.4211 66.5003 39.3325C66.0168 38.6089 65.7268 38.1847 65.3618 37.6794C65.3292 37.6348 65.2314 37.4913 65.136 37.3511L65.1216 37.33C64.7224 36.728 64.4822 36.4972 64.2608 36.4941C64.0518 36.4941 63.7461 36.728 63.69 36.9401C63.6276 37.1772 63.7555 37.7418 64.0362 38.4404C64.3169 39.1454 64.5041 39.5477 65.184 40.8921C65.4991 41.5191 65.7704 42.0431 65.7829 42.0618C65.7954 42.0774 65.9014 42.2739 66.0168 42.4985C66.0713 42.603 66.1335 42.7209 66.1905 42.8289C66.2542 42.9496 66.3114 43.0581 66.3444 43.1223C66.6999 43.7867 67.1179 44.607 67.2333 44.869C67.5359 45.5552 67.6731 45.7081 68.2845 46.0512C68.7929 46.335 69.7879 46.597 70.7891 46.7093C71.5097 46.7904 71.8715 46.8902 72.3238 47.1366C73.0193 47.5172 73.3624 48.0381 73.3687 48.7212C73.3687 48.9988 73.3157 49.1859 73.1503 49.4978C73.0443 49.7006 72.7043 50.2059 72.592 50.3275C72.5608 50.3618 72.4673 50.4741 72.383 50.5771C72.2988 50.68 71.9339 51.0637 71.572 51.4286C71.0262 51.9807 70.7049 52.2895 69.8191 53.1036C69.8114 53.11 69.7847 53.1344 69.7459 53.1697C69.6905 53.2203 69.6104 53.2934 69.5259 53.3687C69.4415 53.444 69.3614 53.517 69.3059 53.5676C69.2671 53.603 69.2404 53.6274 69.2327 53.6338C69.2254 53.6412 69.1802 53.6825 69.1099 53.7469C69.0006 53.8469 68.8304 54.0027 68.6463 54.1734C67.8416 54.9127 67.6419 55.1497 67.5421 55.4897C67.4828 55.6925 67.4735 56.6656 67.5296 57.0899C67.5483 57.2302 67.5764 57.4579 67.592 57.5952C67.6232 57.8572 67.7324 58.6245 67.7792 58.9208C67.9788 60.1653 68.0599 60.786 68.0599 61.098C68.0599 61.4754 68.0131 61.6001 67.723 61.9838C67.4828 62.2988 67.2863 62.4985 66.6563 63.0786C65.9607 63.7149 65.1996 64.476 65.0717 64.6663C64.8752 64.9532 64.8191 65.103 64.7848 65.4273C64.7411 65.8141 64.6288 66.257 64.5041 66.5471C64.4885 66.5814 64.4323 66.7156 64.3793 66.8434C64.2795 67.0743 63.9457 67.7542 63.8272 67.9663C63.2314 69.0144 62.0243 70.7923 61.2757 71.7249C60.5115 72.6731 60.0156 73.0506 59.2296 73.2783C58.5621 73.4716 58.2876 73.4997 57.0805 73.5028H56.0356L55.8515 73.4093C55.471 73.2159 55.2277 72.7917 55.053 72.0181C54.9594 71.597 54.9376 71.4972 54.9002 71.3038C54.8942 71.276 54.8862 71.2386 54.8767 71.1947C54.8323 70.9877 54.7562 70.6337 54.7099 70.4305C54.7026 70.4026 54.6897 70.3506 54.6743 70.288C54.6569 70.2176 54.6362 70.1338 54.6163 70.0562C54.5477 69.7848 54.4198 69.2577 54.3044 68.7617C54.0331 67.6108 53.821 66.884 53.5558 66.2227C53.2969 65.5677 53.0412 65.1341 52.6669 64.7068C52.2115 64.189 52.0898 63.9302 51.9276 63.1472C51.8777 62.8977 51.8777 61.5908 51.9276 61.1822L51.931 61.1564C51.9688 60.8687 51.9803 60.7811 52.0742 60.1841C52.0885 60.0937 52.0986 60.0289 52.1095 59.9643C52.1393 59.7879 52.1743 59.6124 52.3113 58.9208C52.4797 58.0661 52.5234 57.7511 52.5265 57.3581C52.5265 56.884 52.4298 56.2477 52.2739 55.6769C52.1585 55.2714 51.8497 54.37 51.728 54.0923C51.6999 54.03 51.6656 53.9489 51.6532 53.9146C51.6282 53.8522 51.1853 52.7885 51.1011 52.5889C50.9139 52.1491 50.6675 51.7062 50.4897 51.4972C50.1435 51.0855 49.6257 50.758 49.1079 50.627C48.3437 50.4305 47.5234 50.4585 46.1946 50.7205C46.1167 50.7361 45.9139 50.7611 45.7424 50.7798C45.5163 50.7999 45.2983 50.8241 44.7348 50.8865C44.5986 50.9015 44.4423 50.9189 44.2608 50.9389C42.3456 51.151 40.6301 51.2321 39.7006 51.1572C38.7742 51.0824 38.6151 51.02 37.8041 50.4273C36.8528 49.7287 36.4691 49.0799 36.2321 47.7698C36.1323 47.2209 36.1042 46.7623 36.1042 45.7112C36.1042 44.554 36.1478 43.9208 36.2789 43.1535C36.4005 42.4454 36.65 41.519 36.8777 40.9077C36.896 40.8631 36.926 40.7791 36.9577 40.6906C36.9748 40.6428 36.9923 40.5938 37.0087 40.549C37.0237 40.508 37.0387 40.4663 37.0527 40.4275C37.0823 40.3453 37.1073 40.276 37.1179 40.2527C37.146 40.1872 37.5483 39.1235 37.6482 38.8491C37.7511 38.5746 37.9195 38.0786 38.0349 37.723C38.4872 36.3163 39.1454 35.5303 40.6114 34.6476C40.7392 34.5696 41.1822 34.32 41.5939 34.0924C42.0056 33.8647 42.4017 33.637 42.4735 33.5871C42.5452 33.5403 42.6107 33.4997 42.6232 33.4997C42.6575 33.4997 42.9819 33.2845 43.5901 32.8603C44.2701 32.3862 44.5976 32.2053 45.0468 32.0555C45.8765 31.7779 46.5908 31.7467 47.7698 31.937C47.9881 31.9713 48.8989 32.146 49.0799 32.1897C49.2077 32.2177 49.4261 32.2583 49.7692 32.3144C49.8721 32.3332 50.2651 32.3675 50.6425 32.3924C51.02 32.4174 51.4099 32.4579 51.5066 32.4829C51.806 32.5608 52.1148 32.7449 52.3581 32.9851C52.6388 33.2595 52.7604 33.4498 53.1472 34.2109C53.6744 35.2402 53.8147 35.365 54.6163 35.5116C55.3587 35.6488 55.5989 35.6301 56.2726 35.3962L56.753 35.2308L57.174 35.234C57.4267 35.2371 57.7792 35.2652 58.063 35.3057C59.2732 35.4866 59.7068 35.5272 60.3774 35.5272C61.9152 35.5272 63.0911 35.1092 64.1173 34.1953C64.6943 33.6806 65.2994 32.9133 65.5271 32.408C65.6987 32.0275 65.7361 31.8622 65.733 31.4567C65.7299 31.1292 65.7205 31.0543 65.6457 30.8516C65.4304 30.2807 65.156 29.9127 64.1079 28.821C63.3032 27.9819 63.1535 27.8229 62.9601 27.5889C62.6669 27.2365 62.617 27.1834 62.3518 26.9152C62.0212 26.5814 61.8777 26.5003 61.6032 26.4972C61.335 26.4972 61.2539 26.5409 60.786 26.9401C60.1216 27.5078 59.8472 27.6638 59.2452 27.8197C59.0549 27.8696 58.2907 27.8634 58.0162 27.8073C57.4236 27.6887 57.0087 27.5515 56.3007 27.2396C55.3899 26.8341 55.156 26.7405 54.554 26.544C53.7617 26.2851 53.5028 26.2321 53.0131 26.2321C52.2084 26.2321 51.8871 26.4535 51.0512 27.5733C50.0905 28.8646 49.6007 29.3294 48.7773 29.7442C47.748 30.262 46.5253 30.5521 45.053 30.6301C44.1797 30.6769 43.1098 30.6145 42.5764 30.4897C42.5455 30.4809 42.4878 30.4673 42.4291 30.4535C42.405 30.4479 42.3808 30.4421 42.3581 30.4367C42.1085 30.3774 41.753 30.2527 41.5721 30.156C40.8547 29.7754 40.7704 28.9707 41.3288 27.8229C41.519 27.4298 41.7935 27.0462 42.1553 26.675C42.7199 26.0886 43.2533 25.7954 43.7492 25.7954C43.9021 25.7954 44.2483 25.7361 44.4386 25.6769C44.685 25.5989 44.9407 25.4305 45.1996 25.1716C45.4273 24.947 45.4897 24.8597 45.6114 24.6101C45.8391 24.1391 45.8858 23.9302 45.9046 23.3313C45.917 22.8884 45.9077 22.7667 45.8484 22.4579C45.6924 21.6469 45.7548 20.9015 46.073 19.791C46.0752 19.7834 46.0782 19.7733 46.0818 19.7613C46.1029 19.6897 46.1448 19.5475 46.1822 19.4167C46.3506 18.8303 46.6594 17.9414 46.99 17.0774C47.0336 16.9656 47.0751 16.8579 47.1083 16.7715Z" fill="#0069CA"/>
</g>
</g>
<defs>
<clipPath id="clip0_5_27">
<rect width="100" height="100" fill="white"/>
</clipPath>
<clipPath id="clip1_5_27">
<rect width="670" height="100" fill="white"/>
</clipPath>
</defs>
</svg>
